<svg width="208" height="54" viewBox="0 0 208 54" fill="none" xmlns="http://www.w3.org/2000/svg">
<g clip-path="url(#clip0_385_35)">
<rect opacity="0.91" x="4" y="4" width="200" height="46" rx="5" fill="#A09AD6"/>
<path d="M44.1262 30.931C44.2582 30.931 44.3752 30.982 44.4772 31.084L45.4312 32.119C44.9032 32.773 44.2522 33.274 43.4782 33.622C42.7102 33.97 41.7862 34.144 40.7062 34.144C39.7402 34.144 38.8702 33.979 38.0962 33.649C37.3282 33.319 36.6712 32.86 36.1252 32.272C35.5792 31.684 35.1592 30.982 34.8652 30.166C34.5772 29.35 34.4332 28.459 34.4332 27.493C34.4332 26.515 34.5892 25.621 34.9012 24.811C35.2132 23.995 35.6512 23.293 36.2152 22.705C36.7852 22.117 37.4632 21.661 38.2492 21.337C39.0352 21.007 39.9052 20.842 40.8592 20.842C41.8072 20.842 42.6472 20.998 43.3792 21.31C44.1172 21.622 44.7442 22.03 45.2602 22.534L44.4502 23.659C44.4022 23.731 44.3392 23.794 44.2612 23.848C44.1892 23.902 44.0872 23.929 43.9552 23.929C43.8652 23.929 43.7722 23.905 43.6762 23.857C43.5802 23.803 43.4752 23.74 43.3612 23.668C43.2472 23.59 43.1152 23.506 42.9652 23.416C42.8152 23.326 42.6412 23.245 42.4432 23.173C42.2452 23.095 42.0142 23.032 41.7502 22.984C41.4922 22.93 41.1922 22.903 40.8502 22.903C40.2682 22.903 39.7342 23.008 39.2482 23.218C38.7682 23.422 38.3542 23.722 38.0062 24.118C37.6582 24.508 37.3882 24.988 37.1962 25.558C37.0042 26.122 36.9082 26.767 36.9082 27.493C36.9082 28.225 37.0102 28.876 37.2142 29.446C37.4242 30.016 37.7062 30.496 38.0602 30.886C38.4142 31.276 38.8312 31.576 39.3112 31.786C39.7912 31.99 40.3072 32.092 40.8592 32.092C41.1892 32.092 41.4862 32.074 41.7502 32.038C42.0202 32.002 42.2662 31.945 42.4882 31.867C42.7162 31.789 42.9292 31.69 43.1272 31.57C43.3312 31.444 43.5322 31.291 43.7302 31.111C43.7902 31.057 43.8532 31.015 43.9192 30.985C43.9852 30.949 44.0542 30.931 44.1262 30.931ZM48.9616 25.756C49.3216 25.42 49.7176 25.147 50.1496 24.937C50.5816 24.727 51.0886 24.622 51.6706 24.622C52.1746 24.622 52.6216 24.709 53.0116 24.883C53.4016 25.051 53.7256 25.291 53.9836 25.603C54.2476 25.909 54.4456 26.278 54.5776 26.71C54.7156 27.136 54.7846 27.607 54.7846 28.123V34H52.5616V28.123C52.5616 27.559 52.4326 27.124 52.1746 26.818C51.9166 26.506 51.5236 26.35 50.9956 26.35C50.6116 26.35 50.2516 26.437 49.9156 26.611C49.5796 26.785 49.2616 27.022 48.9616 27.322V34H46.7386V20.626H48.9616V25.756ZM58.9958 26.368C59.2838 25.816 59.6258 25.384 60.0218 25.072C60.4178 24.754 60.8858 24.595 61.4258 24.595C61.8518 24.595 62.1938 24.688 62.4518 24.874L62.3078 26.539C62.2778 26.647 62.2328 26.725 62.1728 26.773C62.1188 26.815 62.0438 26.836 61.9478 26.836C61.8578 26.836 61.7228 26.821 61.5428 26.791C61.3688 26.761 61.1978 26.746 61.0298 26.746C60.7838 26.746 60.5648 26.782 60.3728 26.854C60.1808 26.926 60.0068 27.031 59.8508 27.169C59.7008 27.301 59.5658 27.463 59.4458 27.655C59.3318 27.847 59.2238 28.066 59.1218 28.312V34H56.8988V24.766H58.2038C58.4318 24.766 58.5908 24.808 58.6808 24.892C58.7708 24.97 58.8308 25.114 58.8608 25.324L58.9958 26.368ZM67.436 24.622C68.12 24.622 68.741 24.733 69.299 24.955C69.863 25.177 70.343 25.492 70.739 25.9C71.141 26.308 71.45 26.806 71.666 27.394C71.882 27.982 71.99 28.639 71.99 29.365C71.99 30.097 71.882 30.757 71.666 31.345C71.45 31.933 71.141 32.434 70.739 32.848C70.343 33.262 69.863 33.58 69.299 33.802C68.741 34.024 68.12 34.135 67.436 34.135C66.746 34.135 66.119 34.024 65.555 33.802C64.991 33.58 64.508 33.262 64.106 32.848C63.71 32.434 63.401 31.933 63.179 31.345C62.963 30.757 62.855 30.097 62.855 29.365C62.855 28.639 62.963 27.982 63.179 27.394C63.401 26.806 63.71 26.308 64.106 25.9C64.508 25.492 64.991 25.177 65.555 24.955C66.119 24.733 66.746 24.622 67.436 24.622ZM67.436 32.425C68.204 32.425 68.771 32.167 69.137 31.651C69.509 31.135 69.695 30.379 69.695 29.383C69.695 28.387 69.509 27.628 69.137 27.106C68.771 26.584 68.204 26.323 67.436 26.323C66.656 26.323 66.077 26.587 65.699 27.115C65.327 27.637 65.141 28.393 65.141 29.383C65.141 30.373 65.327 31.129 65.699 31.651C66.077 32.167 66.656 32.425 67.436 32.425ZM73.6859 34V24.766H75.0449C75.3329 24.766 75.5219 24.901 75.6119 25.171L75.7559 25.855C75.9179 25.675 76.0859 25.51 76.2599 25.36C76.4399 25.21 76.6289 25.081 76.8269 24.973C77.0309 24.865 77.2469 24.781 77.4749 24.721C77.7089 24.655 77.9639 24.622 78.2399 24.622C78.8219 24.622 79.2989 24.781 79.6709 25.099C80.0489 25.411 80.3309 25.828 80.5169 26.35C80.6609 26.044 80.8409 25.783 81.0569 25.567C81.2729 25.345 81.5099 25.165 81.7679 25.027C82.0259 24.889 82.2989 24.787 82.5869 24.721C82.8809 24.655 83.1749 24.622 83.4689 24.622C83.9789 24.622 84.4319 24.7 84.8279 24.856C85.2239 25.012 85.5569 25.24 85.8269 25.54C86.0969 25.84 86.3009 26.206 86.4389 26.638C86.5829 27.07 86.6549 27.565 86.6549 28.123V34H84.4319V28.123C84.4319 27.535 84.3029 27.094 84.0449 26.8C83.7869 26.5 83.4089 26.35 82.9109 26.35C82.6829 26.35 82.4699 26.389 82.2719 26.467C82.0799 26.545 81.9089 26.659 81.7589 26.809C81.6149 26.953 81.5009 27.136 81.4169 27.358C81.3329 27.58 81.2909 27.835 81.2909 28.123V34H79.0589V28.123C79.0589 27.505 78.9329 27.055 78.6809 26.773C78.4349 26.491 78.0719 26.35 77.5919 26.35C77.2679 26.35 76.9649 26.431 76.6829 26.593C76.4069 26.749 76.1489 26.965 75.9089 27.241V34H73.6859ZM94.7169 28.321C94.7169 28.033 94.6749 27.763 94.5909 27.511C94.5129 27.253 94.3929 27.028 94.2309 26.836C94.0689 26.644 93.8619 26.494 93.6099 26.386C93.3639 26.272 93.0759 26.215 92.7459 26.215C92.1039 26.215 91.5969 26.398 91.2249 26.764C90.8589 27.13 90.6249 27.649 90.5229 28.321H94.7169ZM90.4779 29.662C90.5139 30.136 90.5979 30.547 90.7299 30.895C90.8619 31.237 91.0359 31.522 91.2519 31.75C91.4679 31.972 91.7229 32.14 92.0169 32.254C92.3169 32.362 92.6469 32.416 93.0069 32.416C93.3669 32.416 93.6759 32.374 93.9339 32.29C94.1979 32.206 94.4259 32.113 94.6179 32.011C94.8159 31.909 94.9869 31.816 95.1309 31.732C95.2809 31.648 95.4249 31.606 95.5629 31.606C95.7489 31.606 95.8869 31.675 95.9769 31.813L96.6159 32.623C96.3699 32.911 96.0939 33.154 95.7879 33.352C95.4819 33.544 95.1609 33.7 94.8249 33.82C94.4949 33.934 94.1559 34.015 93.8079 34.063C93.4659 34.111 93.1329 34.135 92.8089 34.135C92.1669 34.135 91.5699 34.03 91.0179 33.82C90.4659 33.604 89.9859 33.289 89.5779 32.875C89.1699 32.455 88.8489 31.939 88.6149 31.327C88.3809 30.709 88.2639 29.995 88.2639 29.185C88.2639 28.555 88.3659 27.964 88.5699 27.412C88.7739 26.854 89.0649 26.371 89.4429 25.963C89.8269 25.549 90.2919 25.222 90.8379 24.982C91.3899 24.742 92.0109 24.622 92.7009 24.622C93.2829 24.622 93.8199 24.715 94.3119 24.901C94.8039 25.087 95.2269 25.36 95.5809 25.72C95.9349 26.074 96.2109 26.512 96.4089 27.034C96.6129 27.55 96.7149 28.141 96.7149 28.807C96.7149 29.143 96.6789 29.371 96.6069 29.491C96.5349 29.605 96.3969 29.662 96.1929 29.662H90.4779ZM114.667 27.493C114.667 28.447 114.508 29.323 114.19 30.121C113.872 30.919 113.425 31.606 112.849 32.182C112.273 32.758 111.58 33.205 110.77 33.523C109.96 33.841 109.06 34 108.07 34H103.111V20.986H108.07C109.06 20.986 109.96 21.148 110.77 21.472C111.58 21.79 112.273 22.237 112.849 22.813C113.425 23.383 113.872 24.067 114.19 24.865C114.508 25.663 114.667 26.539 114.667 27.493ZM112.183 27.493C112.183 26.779 112.087 26.14 111.895 25.576C111.709 25.006 111.436 24.526 111.076 24.136C110.722 23.74 110.29 23.437 109.78 23.227C109.276 23.017 108.706 22.912 108.07 22.912H105.541V32.074H108.07C108.706 32.074 109.276 31.969 109.78 31.759C110.29 31.549 110.722 31.249 111.076 30.859C111.436 30.463 111.709 29.983 111.895 29.419C112.087 28.849 112.183 28.207 112.183 27.493ZM122.279 28.321C122.279 28.033 122.237 27.763 122.153 27.511C122.075 27.253 121.955 27.028 121.793 26.836C121.631 26.644 121.424 26.494 121.172 26.386C120.926 26.272 120.638 26.215 120.308 26.215C119.666 26.215 119.159 26.398 118.787 26.764C118.421 27.13 118.187 27.649 118.085 28.321H122.279ZM118.04 29.662C118.076 30.136 118.16 30.547 118.292 30.895C118.424 31.237 118.598 31.522 118.814 31.75C119.03 31.972 119.285 32.14 119.579 32.254C119.879 32.362 120.209 32.416 120.569 32.416C120.929 32.416 121.238 32.374 121.496 32.29C121.76 32.206 121.988 32.113 122.18 32.011C122.378 31.909 122.549 31.816 122.693 31.732C122.843 31.648 122.987 31.606 123.125 31.606C123.311 31.606 123.449 31.675 123.539 31.813L124.178 32.623C123.932 32.911 123.656 33.154 123.35 33.352C123.044 33.544 122.723 33.7 122.387 33.82C122.057 33.934 121.718 34.015 121.37 34.063C121.028 34.111 120.695 34.135 120.371 34.135C119.729 34.135 119.132 34.03 118.58 33.82C118.028 33.604 117.548 33.289 117.14 32.875C116.732 32.455 116.411 31.939 116.177 31.327C115.943 30.709 115.826 29.995 115.826 29.185C115.826 28.555 115.928 27.964 116.132 27.412C116.336 26.854 116.627 26.371 117.005 25.963C117.389 25.549 117.854 25.222 118.4 24.982C118.952 24.742 119.573 24.622 120.263 24.622C120.845 24.622 121.382 24.715 121.874 24.901C122.366 25.087 122.789 25.36 123.143 25.72C123.497 26.074 123.773 26.512 123.971 27.034C124.175 27.55 124.277 28.141 124.277 28.807C124.277 29.143 124.241 29.371 124.169 29.491C124.097 29.605 123.959 29.662 123.755 29.662H118.04ZM134.042 24.766L130.379 34H128.363L124.7 24.766H126.536C126.704 24.766 126.842 24.805 126.95 24.883C127.064 24.961 127.139 25.06 127.175 25.18L128.957 30.112C129.053 30.4 129.137 30.682 129.209 30.958C129.281 31.234 129.344 31.51 129.398 31.786C129.458 31.51 129.524 31.234 129.596 30.958C129.668 30.682 129.755 30.4 129.857 30.112L131.675 25.18C131.717 25.06 131.792 24.961 131.9 24.883C132.008 24.805 132.137 24.766 132.287 24.766H134.042ZM143.121 22.975H139.197V34H136.776V22.975H132.852V20.986H143.121V22.975ZM146.397 24.622C147.081 24.622 147.702 24.733 148.26 24.955C148.824 25.177 149.304 25.492 149.7 25.9C150.102 26.308 150.411 26.806 150.627 27.394C150.843 27.982 150.951 28.639 150.951 29.365C150.951 30.097 150.843 30.757 150.627 31.345C150.411 31.933 150.102 32.434 149.7 32.848C149.304 33.262 148.824 33.58 148.26 33.802C147.702 34.024 147.081 34.135 146.397 34.135C145.707 34.135 145.08 34.024 144.516 33.802C143.952 33.58 143.469 33.262 143.067 32.848C142.671 32.434 142.362 31.933 142.14 31.345C141.924 30.757 141.816 30.097 141.816 29.365C141.816 28.639 141.924 27.982 142.14 27.394C142.362 26.806 142.671 26.308 143.067 25.9C143.469 25.492 143.952 25.177 144.516 24.955C145.08 24.733 145.707 24.622 146.397 24.622ZM146.397 32.425C147.165 32.425 147.732 32.167 148.098 31.651C148.47 31.135 148.656 30.379 148.656 29.383C148.656 28.387 148.47 27.628 148.098 27.106C147.732 26.584 147.165 26.323 146.397 26.323C145.617 26.323 145.038 26.587 144.66 27.115C144.288 27.637 144.102 28.393 144.102 29.383C144.102 30.373 144.288 31.129 144.66 31.651C145.038 32.167 145.617 32.425 146.397 32.425ZM156.733 24.622C157.417 24.622 158.038 24.733 158.596 24.955C159.16 25.177 159.64 25.492 160.036 25.9C160.438 26.308 160.747 26.806 160.963 27.394C161.179 27.982 161.287 28.639 161.287 29.365C161.287 30.097 161.179 30.757 160.963 31.345C160.747 31.933 160.438 32.434 160.036 32.848C159.64 33.262 159.16 33.58 158.596 33.802C158.038 34.024 157.417 34.135 156.733 34.135C156.043 34.135 155.416 34.024 154.852 33.802C154.288 33.58 153.805 33.262 153.403 32.848C153.007 32.434 152.698 31.933 152.476 31.345C152.26 30.757 152.152 30.097 152.152 29.365C152.152 28.639 152.26 27.982 152.476 27.394C152.698 26.806 153.007 26.308 153.403 25.9C153.805 25.492 154.288 25.177 154.852 24.955C155.416 24.733 156.043 24.622 156.733 24.622ZM156.733 32.425C157.501 32.425 158.068 32.167 158.434 31.651C158.806 31.135 158.992 30.379 158.992 29.383C158.992 28.387 158.806 27.628 158.434 27.106C158.068 26.584 157.501 26.323 156.733 26.323C155.953 26.323 155.374 26.587 154.996 27.115C154.624 27.637 154.438 28.393 154.438 29.383C154.438 30.373 154.624 31.129 154.996 31.651C155.374 32.167 155.953 32.425 156.733 32.425ZM165.233 20.626V34H163.01V20.626H165.233ZM173.082 26.566C173.022 26.662 172.959 26.731 172.893 26.773C172.827 26.809 172.743 26.827 172.641 26.827C172.533 26.827 172.416 26.797 172.29 26.737C172.17 26.677 172.029 26.611 171.867 26.539C171.705 26.461 171.519 26.392 171.309 26.332C171.105 26.272 170.862 26.242 170.58 26.242C170.142 26.242 169.797 26.335 169.545 26.521C169.299 26.707 169.176 26.95 169.176 27.25C169.176 27.448 169.239 27.616 169.365 27.754C169.497 27.886 169.668 28.003 169.878 28.105C170.094 28.207 170.337 28.3 170.607 28.384C170.877 28.462 171.15 28.549 171.426 28.645C171.708 28.741 171.984 28.852 172.254 28.978C172.524 29.098 172.764 29.254 172.974 29.446C173.19 29.632 173.361 29.857 173.487 30.121C173.619 30.385 173.685 30.703 173.685 31.075C173.685 31.519 173.604 31.93 173.442 32.308C173.286 32.68 173.052 33.004 172.74 33.28C172.428 33.55 172.041 33.763 171.579 33.919C171.123 34.069 170.595 34.144 169.995 34.144C169.677 34.144 169.365 34.114 169.059 34.054C168.759 34 168.468 33.922 168.186 33.82C167.91 33.718 167.652 33.598 167.412 33.46C167.178 33.322 166.971 33.172 166.791 33.01L167.304 32.164C167.37 32.062 167.448 31.984 167.538 31.93C167.628 31.876 167.742 31.849 167.88 31.849C168.018 31.849 168.147 31.888 168.267 31.966C168.393 32.044 168.537 32.128 168.699 32.218C168.861 32.308 169.05 32.392 169.266 32.47C169.488 32.548 169.767 32.587 170.103 32.587C170.367 32.587 170.592 32.557 170.778 32.497C170.97 32.431 171.126 32.347 171.246 32.245C171.372 32.143 171.462 32.026 171.516 31.894C171.576 31.756 171.606 31.615 171.606 31.471C171.606 31.255 171.54 31.078 171.408 30.94C171.282 30.802 171.111 30.682 170.895 30.58C170.685 30.478 170.442 30.388 170.166 30.31C169.896 30.226 169.617 30.136 169.329 30.04C169.047 29.944 168.768 29.833 168.492 29.707C168.222 29.575 167.979 29.41 167.763 29.212C167.553 29.014 167.382 28.771 167.25 28.483C167.124 28.195 167.061 27.847 167.061 27.439C167.061 27.061 167.136 26.701 167.286 26.359C167.436 26.017 167.655 25.72 167.943 25.468C168.237 25.21 168.6 25.006 169.032 24.856C169.47 24.7 169.974 24.622 170.544 24.622C171.18 24.622 171.759 24.727 172.281 24.937C172.803 25.147 173.238 25.423 173.586 25.765L173.082 26.566Z" fill="#F2F2F2"/>
<rect x="0.5" y="0.5" width="207" height="53" rx="5.5" stroke="#A09AD6"/>
</g>
<defs>
<clipPath id="clip0_385_35">
<rect width="208" height="54" fill="white"/>
</clipPath>
</defs>
</svg>
