<svg width="208" height="54" viewBox="0 0 208 54" fill="none" xmlns="http://www.w3.org/2000/svg">
<g clip-path="url(#clip0_385_85)">
<rect opacity="0.91" x="4" y="4" width="200" height="46" rx="5" fill="#A09AD6"/>
<path d="M83.6388 22.912V26.764H88.5168V28.699H83.6388V34H81.2088V20.986H89.4168V22.912H83.6388ZM93.3395 24.766V34H91.1075V24.766H93.3395ZM93.6455 22.075C93.6455 22.267 93.6065 22.447 93.5285 22.615C93.4505 22.783 93.3455 22.93 93.2135 23.056C93.0875 23.182 92.9375 23.284 92.7635 23.362C92.5895 23.434 92.4035 23.47 92.2055 23.47C92.0135 23.47 91.8305 23.434 91.6565 23.362C91.4885 23.284 91.3415 23.182 91.2155 23.056C91.0895 22.93 90.9875 22.783 90.9095 22.615C90.8375 22.447 90.8015 22.267 90.8015 22.075C90.8015 21.877 90.8375 21.691 90.9095 21.517C90.9875 21.343 91.0895 21.193 91.2155 21.067C91.3415 20.941 91.4885 20.842 91.6565 20.77C91.8305 20.692 92.0135 20.653 92.2055 20.653C92.4035 20.653 92.5895 20.692 92.7635 20.77C92.9375 20.842 93.0875 20.941 93.2135 21.067C93.3455 21.193 93.4505 21.343 93.5285 21.517C93.6065 21.691 93.6455 21.877 93.6455 22.075ZM98.9808 29.158C99.2568 29.158 99.4968 29.122 99.7008 29.05C99.9048 28.972 100.073 28.867 100.205 28.735C100.343 28.603 100.445 28.444 100.511 28.258C100.583 28.072 100.619 27.868 100.619 27.646C100.619 27.19 100.481 26.83 100.205 26.566C99.9348 26.296 99.5268 26.161 98.9808 26.161C98.4348 26.161 98.0238 26.296 97.7478 26.566C97.4778 26.83 97.3428 27.19 97.3428 27.646C97.3428 27.862 97.3758 28.063 97.4418 28.249C97.5138 28.435 97.6158 28.597 97.7478 28.735C97.8858 28.867 98.0568 28.972 98.2608 29.05C98.4708 29.122 98.7108 29.158 98.9808 29.158ZM101.492 34.414C101.492 34.234 101.438 34.087 101.33 33.973C101.222 33.859 101.075 33.772 100.889 33.712C100.703 33.646 100.484 33.598 100.232 33.568C99.9858 33.538 99.7218 33.517 99.4398 33.505C99.1638 33.487 98.8758 33.472 98.5758 33.46C98.2818 33.448 97.9938 33.424 97.7118 33.388C97.4658 33.526 97.2648 33.688 97.1088 33.874C96.9588 34.06 96.8838 34.276 96.8838 34.522C96.8838 34.684 96.9228 34.834 97.0008 34.972C97.0848 35.116 97.2138 35.239 97.3878 35.341C97.5678 35.443 97.7988 35.521 98.0808 35.575C98.3628 35.635 98.7078 35.665 99.1158 35.665C99.5298 35.665 99.8868 35.632 100.187 35.566C100.487 35.506 100.733 35.419 100.925 35.305C101.123 35.197 101.267 35.065 101.357 34.909C101.447 34.759 101.492 34.594 101.492 34.414ZM103.706 25.081V25.909C103.706 26.173 103.547 26.335 103.229 26.395L102.401 26.548C102.527 26.866 102.59 27.214 102.59 27.592C102.59 28.048 102.497 28.462 102.311 28.834C102.131 29.2 101.879 29.512 101.555 29.77C101.231 30.028 100.847 30.229 100.403 30.373C99.9648 30.511 99.4908 30.58 98.9808 30.58C98.8008 30.58 98.6268 30.571 98.4588 30.553C98.2908 30.535 98.1258 30.511 97.9638 30.481C97.6758 30.655 97.5318 30.85 97.5318 31.066C97.5318 31.252 97.6158 31.39 97.7838 31.48C97.9578 31.564 98.1858 31.624 98.4678 31.66C98.7498 31.696 99.0708 31.72 99.4308 31.732C99.7908 31.738 100.16 31.756 100.538 31.786C100.916 31.816 101.285 31.87 101.645 31.948C102.005 32.02 102.326 32.137 102.608 32.299C102.89 32.461 103.115 32.683 103.283 32.965C103.457 33.241 103.544 33.598 103.544 34.036C103.544 34.444 103.442 34.84 103.238 35.224C103.04 35.608 102.749 35.95 102.365 36.25C101.987 36.55 101.519 36.79 100.961 36.97C100.409 37.156 99.7788 37.249 99.0708 37.249C98.3748 37.249 97.7688 37.18 97.2528 37.042C96.7368 36.91 96.3078 36.73 95.9658 36.502C95.6238 36.28 95.3688 36.022 95.2008 35.728C95.0328 35.434 94.9488 35.128 94.9488 34.81C94.9488 34.378 95.0778 34.018 95.3358 33.73C95.5998 33.436 95.9598 33.202 96.4158 33.028C96.1698 32.902 95.9748 32.734 95.8308 32.524C95.6868 32.314 95.6148 32.038 95.6148 31.696C95.6148 31.558 95.6388 31.417 95.6868 31.273C95.7408 31.123 95.8158 30.976 95.9118 30.832C96.0138 30.688 96.1398 30.553 96.2898 30.427C96.4398 30.295 96.6168 30.178 96.8208 30.076C96.3528 29.824 95.9838 29.488 95.7138 29.068C95.4498 28.648 95.3178 28.156 95.3178 27.592C95.3178 27.136 95.4078 26.725 95.5878 26.359C95.7738 25.987 96.0288 25.672 96.3528 25.414C96.6828 25.15 97.0698 24.949 97.5138 24.811C97.9638 24.673 98.4528 24.604 98.9808 24.604C99.3768 24.604 99.7488 24.646 100.097 24.73C100.445 24.808 100.763 24.925 101.051 25.081H103.706ZM105.116 34V24.766H106.475C106.763 24.766 106.952 24.901 107.042 25.171L107.186 25.855C107.348 25.675 107.516 25.51 107.69 25.36C107.87 25.21 108.059 25.081 108.257 24.973C108.461 24.865 108.677 24.781 108.905 24.721C109.139 24.655 109.394 24.622 109.67 24.622C110.252 24.622 110.729 24.781 111.101 25.099C111.479 25.411 111.761 25.828 111.947 26.35C112.091 26.044 112.271 25.783 112.487 25.567C112.703 25.345 112.94 25.165 113.198 25.027C113.456 24.889 113.729 24.787 114.017 24.721C114.311 24.655 114.605 24.622 114.899 24.622C115.409 24.622 115.862 24.7 116.258 24.856C116.654 25.012 116.987 25.24 117.257 25.54C117.527 25.84 117.731 26.206 117.869 26.638C118.013 27.07 118.085 27.565 118.085 28.123V34H115.862V28.123C115.862 27.535 115.733 27.094 115.475 26.8C115.217 26.5 114.839 26.35 114.341 26.35C114.113 26.35 113.9 26.389 113.702 26.467C113.51 26.545 113.339 26.659 113.189 26.809C113.045 26.953 112.931 27.136 112.847 27.358C112.763 27.58 112.721 27.835 112.721 28.123V34H110.489V28.123C110.489 27.505 110.363 27.055 110.111 26.773C109.865 26.491 109.502 26.35 109.022 26.35C108.698 26.35 108.395 26.431 108.113 26.593C107.837 26.749 107.579 26.965 107.339 27.241V34H105.116ZM125.076 30.058C124.434 30.088 123.894 30.145 123.456 30.229C123.018 30.307 122.667 30.409 122.403 30.535C122.139 30.661 121.95 30.808 121.836 30.976C121.722 31.144 121.665 31.327 121.665 31.525C121.665 31.915 121.779 32.194 122.007 32.362C122.241 32.53 122.544 32.614 122.916 32.614C123.372 32.614 123.765 32.533 124.095 32.371C124.431 32.203 124.758 31.951 125.076 31.615V30.058ZM119.982 26.053C121.044 25.081 122.322 24.595 123.816 24.595C124.356 24.595 124.839 24.685 125.265 24.865C125.691 25.039 126.051 25.285 126.345 25.603C126.639 25.915 126.861 26.29 127.011 26.728C127.167 27.166 127.245 27.646 127.245 28.168V34H126.237C126.027 34 125.865 33.97 125.751 33.91C125.637 33.844 125.547 33.715 125.481 33.523L125.283 32.857C125.049 33.067 124.821 33.253 124.599 33.415C124.377 33.571 124.146 33.703 123.906 33.811C123.666 33.919 123.408 34 123.132 34.054C122.862 34.114 122.562 34.144 122.232 34.144C121.842 34.144 121.482 34.093 121.152 33.991C120.822 33.883 120.537 33.724 120.297 33.514C120.057 33.304 119.871 33.043 119.739 32.731C119.607 32.419 119.541 32.056 119.541 31.642C119.541 31.408 119.58 31.177 119.658 30.949C119.736 30.715 119.862 30.493 120.036 30.283C120.216 30.073 120.447 29.875 120.729 29.689C121.011 29.503 121.356 29.341 121.764 29.203C122.178 29.065 122.658 28.954 123.204 28.87C123.75 28.78 124.374 28.726 125.076 28.708V28.168C125.076 27.55 124.944 27.094 124.68 26.8C124.416 26.5 124.035 26.35 123.537 26.35C123.177 26.35 122.877 26.392 122.637 26.476C122.403 26.56 122.196 26.656 122.016 26.764C121.836 26.866 121.671 26.959 121.521 27.043C121.377 27.127 121.215 27.169 121.035 27.169C120.879 27.169 120.747 27.13 120.639 27.052C120.531 26.968 120.444 26.872 120.378 26.764L119.982 26.053Z" fill="#F2F2F2"/>
<rect x="0.5" y="0.5" width="207" height="53" rx="5.5" stroke="#A09AD6"/>
</g>
<defs>
<clipPath id="clip0_385_85">
<rect width="208" height="54" fill="white"/>
</clipPath>
</defs>
</svg>
