<svg width="208" height="54" viewBox="0 0 208 54" fill="none" xmlns="http://www.w3.org/2000/svg">
<g clip-path="url(#clip0_385_60)">
<rect opacity="0.91" x="4" y="4" width="200" height="46" rx="5" fill="#A09AD6"/>
<path d="M104.031 27.475V32.74C103.371 33.226 102.666 33.583 101.916 33.811C101.172 34.033 100.374 34.144 99.5215 34.144C98.4595 34.144 97.4965 33.979 96.6325 33.649C95.7745 33.319 95.0395 32.86 94.4275 32.272C93.8215 31.684 93.3535 30.982 93.0235 30.166C92.6935 29.35 92.5285 28.459 92.5285 27.493C92.5285 26.515 92.6875 25.618 93.0055 24.802C93.3235 23.986 93.7735 23.284 94.3555 22.696C94.9435 22.108 95.6545 21.652 96.4885 21.328C97.3225 21.004 98.2585 20.842 99.2965 20.842C99.8245 20.842 100.317 20.884 100.773 20.968C101.235 21.052 101.661 21.169 102.051 21.319C102.447 21.463 102.807 21.64 103.131 21.85C103.455 22.06 103.752 22.291 104.022 22.543L103.329 23.641C103.221 23.815 103.08 23.923 102.906 23.965C102.732 24.001 102.543 23.956 102.339 23.83C102.141 23.716 101.943 23.602 101.745 23.488C101.547 23.374 101.325 23.275 101.079 23.191C100.839 23.107 100.566 23.038 100.26 22.984C99.9595 22.93 99.6115 22.903 99.2155 22.903C98.5735 22.903 97.9915 23.011 97.4695 23.227C96.9535 23.443 96.5125 23.752 96.1465 24.154C95.7805 24.556 95.4985 25.039 95.3005 25.603C95.1025 26.167 95.0035 26.797 95.0035 27.493C95.0035 28.237 95.1085 28.903 95.3185 29.491C95.5345 30.073 95.8345 30.568 96.2185 30.976C96.6085 31.378 97.0765 31.687 97.6225 31.903C98.1685 32.113 98.7775 32.218 99.4495 32.218C99.9295 32.218 100.359 32.167 100.737 32.065C101.115 31.963 101.484 31.825 101.844 31.651V29.293H100.206C100.05 29.293 99.9265 29.251 99.8365 29.167C99.7525 29.077 99.7105 28.969 99.7105 28.843V27.475H104.031ZM108.281 24.766V34H106.049V24.766H108.281ZM108.587 22.075C108.587 22.267 108.548 22.447 108.47 22.615C108.392 22.783 108.287 22.93 108.155 23.056C108.029 23.182 107.879 23.284 107.705 23.362C107.531 23.434 107.345 23.47 107.147 23.47C106.955 23.47 106.772 23.434 106.598 23.362C106.43 23.284 106.283 23.182 106.157 23.056C106.031 22.93 105.929 22.783 105.851 22.615C105.779 22.447 105.743 22.267 105.743 22.075C105.743 21.877 105.779 21.691 105.851 21.517C105.929 21.343 106.031 21.193 106.157 21.067C106.283 20.941 106.43 20.842 106.598 20.77C106.772 20.692 106.955 20.653 107.147 20.653C107.345 20.653 107.531 20.692 107.705 20.77C107.879 20.842 108.029 20.941 108.155 21.067C108.287 21.193 108.392 21.343 108.47 21.517C108.548 21.691 108.587 21.877 108.587 22.075ZM113.625 34.144C112.821 34.144 112.203 33.919 111.771 33.469C111.345 33.013 111.132 32.386 111.132 31.588V26.431H110.187C110.067 26.431 109.965 26.392 109.881 26.314C109.797 26.236 109.755 26.119 109.755 25.963V25.081L111.24 24.838L111.708 22.318C111.738 22.198 111.795 22.105 111.879 22.039C111.963 21.973 112.071 21.94 112.203 21.94H113.355V24.847H115.821V26.431H113.355V31.435C113.355 31.723 113.424 31.948 113.562 32.11C113.706 32.272 113.901 32.353 114.147 32.353C114.285 32.353 114.399 32.338 114.489 32.308C114.585 32.272 114.666 32.236 114.732 32.2C114.804 32.164 114.867 32.131 114.921 32.101C114.975 32.065 115.029 32.047 115.083 32.047C115.149 32.047 115.203 32.065 115.245 32.101C115.287 32.131 115.332 32.179 115.38 32.245L116.046 33.325C115.722 33.595 115.35 33.799 114.93 33.937C114.51 34.075 114.075 34.144 113.625 34.144Z" fill="#F2F2F2"/>
<rect x="0.5" y="0.5" width="207" height="53" rx="5.5" stroke="#A09AD6"/>
</g>
<defs>
<clipPath id="clip0_385_60">
<rect width="208" height="54" fill="white"/>
</clipPath>
</defs>
</svg>
