<svg width="320" height="320" viewBox="0 0 320 320" fill="none" xmlns="http://www.w3.org/2000/svg">
<g clip-path="url(#clip0_489_2)">
<path d="M107.032 248.375C107.032 249.625 105.548 250.625 103.677 250.625C101.548 250.812 100.065 249.812 100.065 248.375C100.065 247.125 101.548 246.125 103.419 246.125C105.355 245.937 107.032 246.937 107.032 248.375ZM86.9677 245.562C86.5161 246.812 87.8065 248.25 89.7419 248.625C91.4194 249.25 93.3548 248.625 93.7419 247.375C94.129 246.125 92.9032 244.687 90.9677 244.125C89.2903 243.687 87.4194 244.312 86.9677 245.562ZM115.484 244.5C113.613 244.937 112.323 246.125 112.516 247.562C112.71 248.812 114.387 249.625 116.323 249.187C118.194 248.75 119.484 247.562 119.29 246.312C119.097 245.125 117.355 244.312 115.484 244.5ZM157.935 5C68.4516 5 0 70.8125 0 157.5C0 226.812 45.0323 286.125 109.355 307C117.613 308.437 120.516 303.5 120.516 299.437C120.516 295.562 120.323 274.187 120.323 261.062C120.323 261.062 75.1613 270.437 65.6774 242.437C65.6774 242.437 58.3226 224.25 47.7419 219.562C47.7419 219.562 32.9677 209.75 48.7742 209.937C48.7742 209.937 64.8387 211.187 73.6774 226.062C87.8064 250.187 111.484 243.25 120.71 239.125C122.194 229.125 126.387 222.187 131.032 218.062C94.9677 214.187 58.5806 209.125 58.5806 149C58.5806 131.812 63.4839 123.187 73.8065 112.187C72.129 108.125 66.6452 91.375 75.4839 69.75C88.9677 65.6875 120 86.625 120 86.625C132.903 83.125 146.774 81.3125 160.516 81.3125C174.258 81.3125 188.129 83.125 201.032 86.625C201.032 86.625 232.065 65.625 245.548 69.75C254.387 91.4375 248.903 108.125 247.226 112.187C257.548 123.25 263.871 131.875 263.871 149C263.871 209.312 225.871 214.125 189.806 218.062C195.742 223 200.774 232.375 200.774 247.062C200.774 268.125 200.581 294.187 200.581 299.312C200.581 303.375 203.548 308.312 211.742 306.875C276.258 286.125 320 226.812 320 157.5C320 70.8125 247.419 5 157.935 5ZM62.7097 220.562C61.871 221.187 62.0645 222.625 63.1613 223.812C64.1935 224.812 65.6774 225.25 66.5161 224.437C67.3548 223.812 67.1613 222.375 66.0645 221.187C65.0323 220.187 63.5484 219.75 62.7097 220.562ZM55.7419 215.5C55.2903 216.312 55.9355 217.312 57.2258 217.937C58.2581 218.562 59.5484 218.375 60 217.5C60.4516 216.687 59.8064 215.687 58.5161 215.062C57.2258 214.687 56.1935 214.875 55.7419 215.5ZM76.6452 237.75C75.6129 238.562 76 240.437 77.4839 241.625C78.9677 243.062 80.8387 243.25 81.6774 242.25C82.5161 241.437 82.129 239.562 80.8387 238.375C79.4194 236.937 77.4839 236.75 76.6452 237.75ZM69.2903 228.562C68.2581 229.187 68.2581 230.812 69.2903 232.25C70.3226 233.687 72.0645 234.312 72.9032 233.687C73.9355 232.875 73.9355 231.25 72.9032 229.812C72 228.375 70.3226 227.75 69.2903 228.562Z" fill="#00E296"/>
</g>
<defs>
<clipPath id="clip0_489_2">
<rect width="320" height="320" fill="white"/>
</clipPath>
</defs>
</svg>
