<svg width="208" height="54" viewBox="0 0 208 54" fill="none" xmlns="http://www.w3.org/2000/svg">
<g clip-path="url(#clip0_385_135)">
<rect opacity="0.91" x="4" y="4" width="200" height="46" rx="5" fill="#A09AD6"/>
<path d="M86.9973 27.475V32.74C86.3373 33.226 85.6323 33.583 84.8823 33.811C84.1383 34.033 83.3403 34.144 82.4883 34.144C81.4263 34.144 80.4633 33.979 79.5993 33.649C78.7413 33.319 78.0063 32.86 77.3943 32.272C76.7883 31.684 76.3203 30.982 75.9903 30.166C75.6603 29.35 75.4953 28.459 75.4953 27.493C75.4953 26.515 75.6543 25.618 75.9723 24.802C76.2903 23.986 76.7403 23.284 77.3223 22.696C77.9103 22.108 78.6213 21.652 79.4553 21.328C80.2893 21.004 81.2253 20.842 82.2633 20.842C82.7913 20.842 83.2833 20.884 83.7393 20.968C84.2013 21.052 84.6273 21.169 85.0173 21.319C85.4133 21.463 85.7733 21.64 86.0973 21.85C86.4213 22.06 86.7183 22.291 86.9883 22.543L86.2953 23.641C86.1873 23.815 86.0463 23.923 85.8723 23.965C85.6983 24.001 85.5093 23.956 85.3053 23.83C85.1073 23.716 84.9093 23.602 84.7113 23.488C84.5133 23.374 84.2913 23.275 84.0453 23.191C83.8053 23.107 83.5323 23.038 83.2263 22.984C82.9263 22.93 82.5783 22.903 82.1823 22.903C81.5403 22.903 80.9583 23.011 80.4363 23.227C79.9203 23.443 79.4793 23.752 79.1133 24.154C78.7473 24.556 78.4653 25.039 78.2673 25.603C78.0693 26.167 77.9703 26.797 77.9703 27.493C77.9703 28.237 78.0753 28.903 78.2853 29.491C78.5013 30.073 78.8013 30.568 79.1853 30.976C79.5753 31.378 80.0433 31.687 80.5893 31.903C81.1353 32.113 81.7443 32.218 82.4163 32.218C82.8963 32.218 83.3253 32.167 83.7033 32.065C84.0813 31.963 84.4503 31.825 84.8103 31.651V29.293H83.1723C83.0163 29.293 82.8933 29.251 82.8033 29.167C82.7193 29.077 82.6773 28.969 82.6773 28.843V27.475H86.9973ZM91.2477 24.766V34H89.0157V24.766H91.2477ZM91.5537 22.075C91.5537 22.267 91.5147 22.447 91.4367 22.615C91.3587 22.783 91.2537 22.93 91.1217 23.056C90.9957 23.182 90.8457 23.284 90.6717 23.362C90.4977 23.434 90.3117 23.47 90.1137 23.47C89.9217 23.47 89.7387 23.434 89.5647 23.362C89.3967 23.284 89.2497 23.182 89.1237 23.056C88.9977 22.93 88.8957 22.783 88.8177 22.615C88.7457 22.447 88.7097 22.267 88.7097 22.075C88.7097 21.877 88.7457 21.691 88.8177 21.517C88.8957 21.343 88.9977 21.193 89.1237 21.067C89.2497 20.941 89.3967 20.842 89.5647 20.77C89.7387 20.692 89.9217 20.653 90.1137 20.653C90.3117 20.653 90.4977 20.692 90.6717 20.77C90.8457 20.842 90.9957 20.941 91.1217 21.067C91.2537 21.193 91.3587 21.343 91.4367 21.517C91.5147 21.691 91.5537 21.877 91.5537 22.075ZM96.592 34.144C95.788 34.144 95.17 33.919 94.738 33.469C94.312 33.013 94.099 32.386 94.099 31.588V26.431H93.154C93.034 26.431 92.932 26.392 92.848 26.314C92.764 26.236 92.722 26.119 92.722 25.963V25.081L94.207 24.838L94.675 22.318C94.705 22.198 94.762 22.105 94.846 22.039C94.93 21.973 95.038 21.94 95.17 21.94H96.322V24.847H98.788V26.431H96.322V31.435C96.322 31.723 96.391 31.948 96.529 32.11C96.673 32.272 96.868 32.353 97.114 32.353C97.252 32.353 97.366 32.338 97.456 32.308C97.552 32.272 97.633 32.236 97.699 32.2C97.771 32.164 97.834 32.131 97.888 32.101C97.942 32.065 97.996 32.047 98.05 32.047C98.116 32.047 98.17 32.065 98.212 32.101C98.254 32.131 98.299 32.179 98.347 32.245L99.013 33.325C98.689 33.595 98.317 33.799 97.897 33.937C97.477 34.075 97.042 34.144 96.592 34.144ZM111.533 20.986V34H109.103V28.312H102.992V34H100.562V20.986H102.992V26.584H109.103V20.986H111.533ZM121.861 24.766V34H120.502C120.208 34 120.022 33.865 119.944 33.595L119.791 32.857C119.413 33.241 118.996 33.553 118.54 33.793C118.084 34.027 117.547 34.144 116.929 34.144C116.425 34.144 115.978 34.06 115.588 33.892C115.204 33.718 114.88 33.475 114.616 33.163C114.352 32.851 114.151 32.482 114.013 32.056C113.881 31.624 113.815 31.15 113.815 30.634V24.766H116.038V30.634C116.038 31.198 116.167 31.636 116.425 31.948C116.689 32.254 117.082 32.407 117.604 32.407C117.988 32.407 118.348 32.323 118.684 32.155C119.02 31.981 119.338 31.744 119.638 31.444V24.766H121.861ZM126.288 31.606C126.54 31.912 126.813 32.128 127.107 32.254C127.407 32.38 127.722 32.443 128.052 32.443C128.394 32.443 128.7 32.383 128.97 32.263C129.246 32.137 129.48 31.945 129.672 31.687C129.864 31.423 130.011 31.09 130.113 30.688C130.215 30.28 130.266 29.794 130.266 29.23C130.266 28.216 130.098 27.484 129.762 27.034C129.426 26.578 128.943 26.35 128.313 26.35C127.887 26.35 127.515 26.449 127.197 26.647C126.879 26.839 126.576 27.112 126.288 27.466V31.606ZM126.288 25.9C126.66 25.51 127.071 25.201 127.521 24.973C127.977 24.739 128.496 24.622 129.078 24.622C129.612 24.622 130.092 24.727 130.518 24.937C130.95 25.147 131.316 25.45 131.616 25.846C131.922 26.236 132.156 26.71 132.318 27.268C132.48 27.826 132.561 28.453 132.561 29.149C132.561 29.899 132.468 30.58 132.282 31.192C132.096 31.804 131.829 32.329 131.481 32.767C131.139 33.199 130.725 33.535 130.239 33.775C129.753 34.015 129.213 34.135 128.619 34.135C128.331 34.135 128.07 34.105 127.836 34.045C127.602 33.991 127.386 33.913 127.188 33.811C126.99 33.709 126.807 33.586 126.639 33.442C126.477 33.292 126.321 33.127 126.171 32.947L126.072 33.568C126.036 33.724 125.973 33.835 125.883 33.901C125.799 33.967 125.682 34 125.532 34H124.065V20.626H126.288V25.9Z" fill="#F2F2F2"/>
<rect x="0.5" y="0.5" width="207" height="53" rx="5.5" stroke="#A09AD6"/>
</g>
<defs>
<clipPath id="clip0_385_135">
<rect width="208" height="54" fill="white"/>
</clipPath>
</defs>
</svg>
