<svg width="320" height="320" viewBox="0 0 320 320" fill="none" xmlns="http://www.w3.org/2000/svg">
<g clip-path="url(#clip0_489_6)">
<circle cx="160" cy="160" r="160" fill="#00E296"/>
<g clip-path="url(#clip1_489_6)">
<path d="M103.19 251.429H60.5408V129.344H103.19V251.429ZM81.8423 112.691C68.2046 112.691 57.1428 102.65 57.1428 90.5271C57.1428 84.7041 59.7451 79.1196 64.3771 75.0021C69.0092 70.8846 75.2916 68.5715 81.8423 68.5715C88.393 68.5715 94.6754 70.8846 99.3075 75.0021C103.94 79.1196 106.542 84.7041 106.542 90.5271C106.542 102.65 95.4755 112.691 81.8423 112.691ZM262.811 251.429H220.254V191.999C220.254 177.835 219.933 159.671 198.08 159.671C175.906 159.671 172.508 175.06 172.508 190.978V251.429H129.905V129.344H170.809V145.998H171.406C177.1 136.406 191.009 126.283 211.759 126.283C254.922 126.283 262.857 151.549 262.857 184.366V251.429H262.811Z" fill="#542F7D"/>
</g>
</g>
<defs>
<clipPath id="clip0_489_6">
<rect width="320" height="320" fill="white"/>
</clipPath>
<clipPath id="clip1_489_6">
<rect width="205.714" height="205.714" fill="white" transform="translate(57.1428 57.1429)"/>
</clipPath>
</defs>
</svg>
