<svg width="208" height="54" viewBox="0 0 208 54" fill="none" xmlns="http://www.w3.org/2000/svg">
<g clip-path="url(#clip0_385_160)">
<rect opacity="0.91" x="4" y="4" width="200" height="46" rx="5" fill="#A09AD6"/>
<path d="M65.679 27.529C66.123 27.529 66.51 27.475 66.84 27.367C67.17 27.253 67.443 27.094 67.659 26.89C67.881 26.68 68.046 26.428 68.154 26.134C68.262 25.834 68.316 25.501 68.316 25.135C68.316 24.787 68.262 24.472 68.154 24.19C68.046 23.908 67.884 23.668 67.668 23.47C67.452 23.272 67.179 23.122 66.849 23.02C66.519 22.912 66.129 22.858 65.679 22.858H63.87V27.529H65.679ZM65.679 20.986C66.549 20.986 67.302 21.088 67.938 21.292C68.574 21.496 69.099 21.781 69.513 22.147C69.927 22.513 70.233 22.951 70.431 23.461C70.635 23.971 70.737 24.529 70.737 25.135C70.737 25.765 70.632 26.344 70.422 26.872C70.212 27.394 69.897 27.844 69.477 28.222C69.057 28.6 68.529 28.894 67.893 29.104C67.263 29.314 66.525 29.419 65.679 29.419H63.87V34H61.449V20.986H65.679ZM74.4304 25.756C74.7904 25.42 75.1864 25.147 75.6184 24.937C76.0504 24.727 76.5574 24.622 77.1394 24.622C77.6434 24.622 78.0904 24.709 78.4804 24.883C78.8704 25.051 79.1944 25.291 79.4524 25.603C79.7164 25.909 79.9144 26.278 80.0464 26.71C80.1844 27.136 80.2534 27.607 80.2534 28.123V34H78.0304V28.123C78.0304 27.559 77.9014 27.124 77.6434 26.818C77.3854 26.506 76.9924 26.35 76.4644 26.35C76.0804 26.35 75.7204 26.437 75.3844 26.611C75.0484 26.785 74.7304 27.022 74.4304 27.322V34H72.2074V20.626H74.4304V25.756ZM86.4535 24.622C87.1375 24.622 87.7585 24.733 88.3165 24.955C88.8805 25.177 89.3605 25.492 89.7565 25.9C90.1585 26.308 90.4675 26.806 90.6835 27.394C90.8995 27.982 91.0075 28.639 91.0075 29.365C91.0075 30.097 90.8995 30.757 90.6835 31.345C90.4675 31.933 90.1585 32.434 89.7565 32.848C89.3605 33.262 88.8805 33.58 88.3165 33.802C87.7585 34.024 87.1375 34.135 86.4535 34.135C85.7635 34.135 85.1365 34.024 84.5725 33.802C84.0085 33.58 83.5255 33.262 83.1235 32.848C82.7275 32.434 82.4185 31.933 82.1965 31.345C81.9805 30.757 81.8725 30.097 81.8725 29.365C81.8725 28.639 81.9805 27.982 82.1965 27.394C82.4185 26.806 82.7275 26.308 83.1235 25.9C83.5255 25.492 84.0085 25.177 84.5725 24.955C85.1365 24.733 85.7635 24.622 86.4535 24.622ZM86.4535 32.425C87.2215 32.425 87.7885 32.167 88.1545 31.651C88.5265 31.135 88.7125 30.379 88.7125 29.383C88.7125 28.387 88.5265 27.628 88.1545 27.106C87.7885 26.584 87.2215 26.323 86.4535 26.323C85.6735 26.323 85.0945 26.587 84.7165 27.115C84.3445 27.637 84.1585 28.393 84.1585 29.383C84.1585 30.373 84.3445 31.129 84.7165 31.651C85.0945 32.167 85.6735 32.425 86.4535 32.425ZM95.6057 34.144C94.8017 34.144 94.1837 33.919 93.7517 33.469C93.3257 33.013 93.1127 32.386 93.1127 31.588V26.431H92.1677C92.0477 26.431 91.9457 26.392 91.8617 26.314C91.7777 26.236 91.7357 26.119 91.7357 25.963V25.081L93.2207 24.838L93.6887 22.318C93.7187 22.198 93.7757 22.105 93.8597 22.039C93.9437 21.973 94.0517 21.94 94.1837 21.94H95.3357V24.847H97.8017V26.431H95.3357V31.435C95.3357 31.723 95.4047 31.948 95.5427 32.11C95.6867 32.272 95.8817 32.353 96.1277 32.353C96.2657 32.353 96.3797 32.338 96.4697 32.308C96.5657 32.272 96.6467 32.236 96.7127 32.2C96.7847 32.164 96.8477 32.131 96.9017 32.101C96.9557 32.065 97.0097 32.047 97.0637 32.047C97.1297 32.047 97.1837 32.065 97.2257 32.101C97.2677 32.131 97.3127 32.179 97.3607 32.245L98.0267 33.325C97.7027 33.595 97.3307 33.799 96.9107 33.937C96.4907 34.075 96.0557 34.144 95.6057 34.144ZM103.241 24.622C103.925 24.622 104.546 24.733 105.104 24.955C105.668 25.177 106.148 25.492 106.544 25.9C106.946 26.308 107.255 26.806 107.471 27.394C107.687 27.982 107.795 28.639 107.795 29.365C107.795 30.097 107.687 30.757 107.471 31.345C107.255 31.933 106.946 32.434 106.544 32.848C106.148 33.262 105.668 33.58 105.104 33.802C104.546 34.024 103.925 34.135 103.241 34.135C102.551 34.135 101.924 34.024 101.36 33.802C100.796 33.58 100.313 33.262 99.9106 32.848C99.5146 32.434 99.2056 31.933 98.9836 31.345C98.7676 30.757 98.6596 30.097 98.6596 29.365C98.6596 28.639 98.7676 27.982 98.9836 27.394C99.2056 26.806 99.5146 26.308 99.9106 25.9C100.313 25.492 100.796 25.177 101.36 24.955C101.924 24.733 102.551 24.622 103.241 24.622ZM103.241 32.425C104.009 32.425 104.576 32.167 104.942 31.651C105.314 31.135 105.5 30.379 105.5 29.383C105.5 28.387 105.314 27.628 104.942 27.106C104.576 26.584 104.009 26.323 103.241 26.323C102.461 26.323 101.882 26.587 101.504 27.115C101.132 27.637 100.946 28.393 100.946 29.383C100.946 30.373 101.132 31.129 101.504 31.651C101.882 32.167 102.461 32.425 103.241 32.425ZM115.125 26.566C115.065 26.662 115.002 26.731 114.936 26.773C114.87 26.809 114.786 26.827 114.684 26.827C114.576 26.827 114.459 26.797 114.333 26.737C114.213 26.677 114.072 26.611 113.91 26.539C113.748 26.461 113.562 26.392 113.352 26.332C113.148 26.272 112.905 26.242 112.623 26.242C112.185 26.242 111.84 26.335 111.588 26.521C111.342 26.707 111.219 26.95 111.219 27.25C111.219 27.448 111.282 27.616 111.408 27.754C111.54 27.886 111.711 28.003 111.921 28.105C112.137 28.207 112.38 28.3 112.65 28.384C112.92 28.462 113.193 28.549 113.469 28.645C113.751 28.741 114.027 28.852 114.297 28.978C114.567 29.098 114.807 29.254 115.017 29.446C115.233 29.632 115.404 29.857 115.53 30.121C115.662 30.385 115.728 30.703 115.728 31.075C115.728 31.519 115.647 31.93 115.485 32.308C115.329 32.68 115.095 33.004 114.783 33.28C114.471 33.55 114.084 33.763 113.622 33.919C113.166 34.069 112.638 34.144 112.038 34.144C111.72 34.144 111.408 34.114 111.102 34.054C110.802 34 110.511 33.922 110.229 33.82C109.953 33.718 109.695 33.598 109.455 33.46C109.221 33.322 109.014 33.172 108.834 33.01L109.347 32.164C109.413 32.062 109.491 31.984 109.581 31.93C109.671 31.876 109.785 31.849 109.923 31.849C110.061 31.849 110.19 31.888 110.31 31.966C110.436 32.044 110.58 32.128 110.742 32.218C110.904 32.308 111.093 32.392 111.309 32.47C111.531 32.548 111.81 32.587 112.146 32.587C112.41 32.587 112.635 32.557 112.821 32.497C113.013 32.431 113.169 32.347 113.289 32.245C113.415 32.143 113.505 32.026 113.559 31.894C113.619 31.756 113.649 31.615 113.649 31.471C113.649 31.255 113.583 31.078 113.451 30.94C113.325 30.802 113.154 30.682 112.938 30.58C112.728 30.478 112.485 30.388 112.209 30.31C111.939 30.226 111.66 30.136 111.372 30.04C111.09 29.944 110.811 29.833 110.535 29.707C110.265 29.575 110.022 29.41 109.806 29.212C109.596 29.014 109.425 28.771 109.293 28.483C109.167 28.195 109.104 27.847 109.104 27.439C109.104 27.061 109.179 26.701 109.329 26.359C109.479 26.017 109.698 25.72 109.986 25.468C110.28 25.21 110.643 25.006 111.075 24.856C111.513 24.7 112.017 24.622 112.587 24.622C113.223 24.622 113.802 24.727 114.324 24.937C114.846 25.147 115.281 25.423 115.629 25.765L115.125 26.566ZM119.624 25.756C119.984 25.42 120.38 25.147 120.812 24.937C121.244 24.727 121.751 24.622 122.333 24.622C122.837 24.622 123.284 24.709 123.674 24.883C124.064 25.051 124.388 25.291 124.646 25.603C124.91 25.909 125.108 26.278 125.24 26.71C125.378 27.136 125.447 27.607 125.447 28.123V34H123.224V28.123C123.224 27.559 123.095 27.124 122.837 26.818C122.579 26.506 122.186 26.35 121.658 26.35C121.274 26.35 120.914 26.437 120.578 26.611C120.242 26.785 119.924 27.022 119.624 27.322V34H117.401V20.626H119.624V25.756ZM131.647 24.622C132.331 24.622 132.952 24.733 133.51 24.955C134.074 25.177 134.554 25.492 134.95 25.9C135.352 26.308 135.661 26.806 135.877 27.394C136.093 27.982 136.201 28.639 136.201 29.365C136.201 30.097 136.093 30.757 135.877 31.345C135.661 31.933 135.352 32.434 134.95 32.848C134.554 33.262 134.074 33.58 133.51 33.802C132.952 34.024 132.331 34.135 131.647 34.135C130.957 34.135 130.33 34.024 129.766 33.802C129.202 33.58 128.719 33.262 128.317 32.848C127.921 32.434 127.612 31.933 127.39 31.345C127.174 30.757 127.066 30.097 127.066 29.365C127.066 28.639 127.174 27.982 127.39 27.394C127.612 26.806 127.921 26.308 128.317 25.9C128.719 25.492 129.202 25.177 129.766 24.955C130.33 24.733 130.957 24.622 131.647 24.622ZM131.647 32.425C132.415 32.425 132.982 32.167 133.348 31.651C133.72 31.135 133.906 30.379 133.906 29.383C133.906 28.387 133.72 27.628 133.348 27.106C132.982 26.584 132.415 26.323 131.647 26.323C130.867 26.323 130.288 26.587 129.91 27.115C129.538 27.637 129.352 28.393 129.352 29.383C129.352 30.373 129.538 31.129 129.91 31.651C130.288 32.167 130.867 32.425 131.647 32.425ZM140.12 31.606C140.372 31.912 140.645 32.128 140.939 32.254C141.239 32.38 141.563 32.443 141.911 32.443C142.247 32.443 142.55 32.38 142.82 32.254C143.09 32.128 143.318 31.936 143.504 31.678C143.696 31.42 143.843 31.096 143.945 30.706C144.047 30.31 144.098 29.845 144.098 29.311C144.098 28.771 144.053 28.315 143.963 27.943C143.879 27.565 143.756 27.259 143.594 27.025C143.432 26.791 143.234 26.62 143 26.512C142.772 26.404 142.511 26.35 142.217 26.35C141.755 26.35 141.362 26.449 141.038 26.647C140.714 26.839 140.408 27.112 140.12 27.466V31.606ZM140.003 26.026C140.381 25.6 140.81 25.255 141.29 24.991C141.77 24.727 142.334 24.595 142.982 24.595C143.486 24.595 143.945 24.7 144.359 24.91C144.779 25.12 145.139 25.426 145.439 25.828C145.745 26.224 145.979 26.716 146.141 27.304C146.309 27.886 146.393 28.555 146.393 29.311C146.393 30.001 146.3 30.64 146.114 31.228C145.928 31.816 145.661 32.326 145.313 32.758C144.971 33.19 144.554 33.529 144.062 33.775C143.576 34.015 143.03 34.135 142.424 34.135C141.908 34.135 141.467 34.057 141.101 33.901C140.735 33.739 140.408 33.517 140.12 33.235V37.015H137.897V24.766H139.256C139.544 24.766 139.733 24.901 139.823 25.171L140.003 26.026Z" fill="#F2F2F2"/>
<rect x="0.5" y="0.5" width="207" height="53" rx="5.5" stroke="#A09AD6"/>
</g>
<defs>
<clipPath id="clip0_385_160">
<rect width="208" height="54" fill="white"/>
</clipPath>
</defs>
</svg>
