<svg width="320" height="320" viewBox="0 0 320 320" fill="none" xmlns="http://www.w3.org/2000/svg">
<g clip-path="url(#clip0_489_29)">
<circle cx="160" cy="160" r="160" fill="#00E296"/>
<g clip-path="url(#clip1_489_29)">
<path d="M250.79 113.445C250.935 115.475 250.935 117.506 250.935 119.536C250.935 181.465 203.8 252.821 117.65 252.821C91.1094 252.821 66.454 245.134 45.7143 231.791C49.4853 232.226 53.1107 232.371 57.0268 232.371C78.9263 232.371 99.0862 224.975 115.185 212.357C94.5902 211.922 77.3313 198.434 71.3848 179.87C74.2857 180.304 77.1862 180.595 80.2322 180.595C84.438 180.595 88.6442 180.014 92.5598 179C71.0951 174.648 54.996 155.794 54.996 133.024V132.444C61.2322 135.925 68.4844 138.1 76.1705 138.39C63.5527 129.978 55.2862 115.62 55.2862 99.3763C55.2862 90.6745 57.6063 82.6977 61.6674 75.7361C84.7277 104.162 119.391 122.726 158.259 124.757C157.534 121.276 157.099 117.651 157.099 114.025C157.099 88.2089 177.983 67.1794 203.944 67.1794C217.432 67.1794 229.615 72.8357 238.172 81.9727C248.759 79.9424 258.911 76.0263 267.904 70.6602C264.422 81.5379 257.026 90.675 247.309 96.4759C256.736 95.4611 265.873 92.85 274.285 89.2245C267.904 98.5062 259.927 106.773 250.79 113.445Z" fill="#542F7D"/>
</g>
</g>
<defs>
<clipPath id="clip0_489_29">
<rect width="320" height="320" fill="white"/>
</clipPath>
<clipPath id="clip1_489_29">
<rect width="228.571" height="228.571" fill="white" transform="translate(45.7143 45.7142)"/>
</clipPath>
</defs>
</svg>
