<svg width="208" height="54" viewBox="0 0 208 54" fill="none" xmlns="http://www.w3.org/2000/svg">
<g clip-path="url(#clip0_385_110)">
<rect opacity="0.91" x="4" y="4" width="200" height="46" rx="5" fill="#A09AD6"/>
<path d="M41.1898 20.986L35.9338 34H33.7468L28.4908 20.986H30.4348C30.6448 20.986 30.8158 21.037 30.9478 21.139C31.0798 21.241 31.1788 21.373 31.2448 21.535L34.3138 29.473C34.4158 29.731 34.5118 30.016 34.6018 30.328C34.6978 30.634 34.7878 30.955 34.8718 31.291C34.9438 30.955 35.0218 30.634 35.1058 30.328C35.1898 30.016 35.2828 29.731 35.3848 29.473L38.4358 21.535C38.4838 21.397 38.5768 21.271 38.7148 21.157C38.8588 21.043 39.0328 20.986 39.2368 20.986H41.1898ZM44.4899 24.766V34H42.2579V24.766H44.4899ZM44.7959 22.075C44.7959 22.267 44.7569 22.447 44.6789 22.615C44.6009 22.783 44.4959 22.93 44.3639 23.056C44.2379 23.182 44.0879 23.284 43.9139 23.362C43.7399 23.434 43.5539 23.47 43.3559 23.47C43.1639 23.47 42.9809 23.434 42.8069 23.362C42.6389 23.284 42.4919 23.182 42.3659 23.056C42.2399 22.93 42.1379 22.783 42.0599 22.615C41.9879 22.447 41.9519 22.267 41.9519 22.075C41.9519 21.877 41.9879 21.691 42.0599 21.517C42.1379 21.343 42.2399 21.193 42.3659 21.067C42.4919 20.941 42.6389 20.842 42.8069 20.77C42.9809 20.692 43.1639 20.653 43.3559 20.653C43.5539 20.653 43.7399 20.692 43.9139 20.77C44.0879 20.842 44.2379 20.941 44.3639 21.067C44.4959 21.193 44.6009 21.343 44.6789 21.517C44.7569 21.691 44.7959 21.877 44.7959 22.075ZM52.3902 26.566C52.3302 26.662 52.2672 26.731 52.2012 26.773C52.1352 26.809 52.0512 26.827 51.9492 26.827C51.8412 26.827 51.7242 26.797 51.5982 26.737C51.4782 26.677 51.3372 26.611 51.1752 26.539C51.0132 26.461 50.8272 26.392 50.6172 26.332C50.4132 26.272 50.1702 26.242 49.8882 26.242C49.4502 26.242 49.1052 26.335 48.8532 26.521C48.6072 26.707 48.4842 26.95 48.4842 27.25C48.4842 27.448 48.5472 27.616 48.6732 27.754C48.8052 27.886 48.9762 28.003 49.1862 28.105C49.4022 28.207 49.6452 28.3 49.9152 28.384C50.1852 28.462 50.4582 28.549 50.7342 28.645C51.0162 28.741 51.2922 28.852 51.5622 28.978C51.8322 29.098 52.0722 29.254 52.2822 29.446C52.4982 29.632 52.6692 29.857 52.7952 30.121C52.9272 30.385 52.9932 30.703 52.9932 31.075C52.9932 31.519 52.9122 31.93 52.7502 32.308C52.5942 32.68 52.3602 33.004 52.0482 33.28C51.7362 33.55 51.3492 33.763 50.8872 33.919C50.4312 34.069 49.9032 34.144 49.3032 34.144C48.9852 34.144 48.6732 34.114 48.3672 34.054C48.0672 34 47.7762 33.922 47.4942 33.82C47.2182 33.718 46.9602 33.598 46.7202 33.46C46.4862 33.322 46.2792 33.172 46.0992 33.01L46.6122 32.164C46.6782 32.062 46.7562 31.984 46.8462 31.93C46.9362 31.876 47.0502 31.849 47.1882 31.849C47.3262 31.849 47.4552 31.888 47.5752 31.966C47.7012 32.044 47.8452 32.128 48.0072 32.218C48.1692 32.308 48.3582 32.392 48.5742 32.47C48.7962 32.548 49.0752 32.587 49.4112 32.587C49.6752 32.587 49.9002 32.557 50.0862 32.497C50.2782 32.431 50.4342 32.347 50.5542 32.245C50.6802 32.143 50.7702 32.026 50.8242 31.894C50.8842 31.756 50.9142 31.615 50.9142 31.471C50.9142 31.255 50.8482 31.078 50.7162 30.94C50.5902 30.802 50.4192 30.682 50.2032 30.58C49.9932 30.478 49.7502 30.388 49.4742 30.31C49.2042 30.226 48.9252 30.136 48.6372 30.04C48.3552 29.944 48.0762 29.833 47.8002 29.707C47.5302 29.575 47.2872 29.41 47.0712 29.212C46.8612 29.014 46.6902 28.771 46.5582 28.483C46.4322 28.195 46.3692 27.847 46.3692 27.439C46.3692 27.061 46.4442 26.701 46.5942 26.359C46.7442 26.017 46.9632 25.72 47.2512 25.468C47.5452 25.21 47.9082 25.006 48.3402 24.856C48.7782 24.7 49.2822 24.622 49.8522 24.622C50.4882 24.622 51.0672 24.727 51.5892 24.937C52.1112 25.147 52.5462 25.423 52.8942 25.765L52.3902 26.566ZM62.6224 24.766V34H61.2634C60.9694 34 60.7834 33.865 60.7054 33.595L60.5524 32.857C60.1744 33.241 59.7574 33.553 59.3014 33.793C58.8454 34.027 58.3084 34.144 57.6904 34.144C57.1864 34.144 56.7394 34.06 56.3494 33.892C55.9654 33.718 55.6414 33.475 55.3774 33.163C55.1134 32.851 54.9124 32.482 54.7744 32.056C54.6424 31.624 54.5764 31.15 54.5764 30.634V24.766H56.7994V30.634C56.7994 31.198 56.9284 31.636 57.1864 31.948C57.4504 32.254 57.8434 32.407 58.3654 32.407C58.7494 32.407 59.1094 32.323 59.4454 32.155C59.7814 31.981 60.0994 31.744 60.3994 31.444V24.766H62.6224ZM69.7045 30.058C69.0625 30.088 68.5225 30.145 68.0845 30.229C67.6465 30.307 67.2955 30.409 67.0315 30.535C66.7675 30.661 66.5785 30.808 66.4645 30.976C66.3505 31.144 66.2935 31.327 66.2935 31.525C66.2935 31.915 66.4075 32.194 66.6355 32.362C66.8695 32.53 67.1725 32.614 67.5445 32.614C68.0005 32.614 68.3935 32.533 68.7235 32.371C69.0595 32.203 69.3865 31.951 69.7045 31.615V30.058ZM64.6105 26.053C65.6725 25.081 66.9505 24.595 68.4445 24.595C68.9845 24.595 69.4675 24.685 69.8935 24.865C70.3195 25.039 70.6795 25.285 70.9735 25.603C71.2675 25.915 71.4895 26.29 71.6395 26.728C71.7955 27.166 71.8735 27.646 71.8735 28.168V34H70.8655C70.6555 34 70.4935 33.97 70.3795 33.91C70.2655 33.844 70.1755 33.715 70.1095 33.523L69.9115 32.857C69.6775 33.067 69.4495 33.253 69.2275 33.415C69.0055 33.571 68.7745 33.703 68.5345 33.811C68.2945 33.919 68.0365 34 67.7605 34.054C67.4905 34.114 67.1905 34.144 66.8605 34.144C66.4705 34.144 66.1105 34.093 65.7805 33.991C65.4505 33.883 65.1655 33.724 64.9255 33.514C64.6855 33.304 64.4995 33.043 64.3675 32.731C64.2355 32.419 64.1695 32.056 64.1695 31.642C64.1695 31.408 64.2085 31.177 64.2865 30.949C64.3645 30.715 64.4905 30.493 64.6645 30.283C64.8445 30.073 65.0755 29.875 65.3575 29.689C65.6395 29.503 65.9845 29.341 66.3925 29.203C66.8065 29.065 67.2865 28.954 67.8325 28.87C68.3785 28.78 69.0025 28.726 69.7045 28.708V28.168C69.7045 27.55 69.5725 27.094 69.3085 26.8C69.0445 26.5 68.6635 26.35 68.1655 26.35C67.8055 26.35 67.5055 26.392 67.2655 26.476C67.0315 26.56 66.8245 26.656 66.6445 26.764C66.4645 26.866 66.2995 26.959 66.1495 27.043C66.0055 27.127 65.8435 27.169 65.6635 27.169C65.5075 27.169 65.3755 27.13 65.2675 27.052C65.1595 26.968 65.0725 26.872 65.0065 26.764L64.6105 26.053ZM76.2171 20.626V34H73.9941V20.626H76.2171ZM90.0899 23.353C90.0179 23.479 89.9399 23.572 89.8559 23.632C89.7779 23.686 89.6789 23.713 89.5589 23.713C89.4329 23.713 89.2949 23.668 89.1449 23.578C89.0009 23.482 88.8269 23.377 88.6229 23.263C88.4189 23.149 88.1789 23.047 87.9029 22.957C87.6329 22.861 87.3119 22.813 86.9399 22.813C86.6039 22.813 86.3099 22.855 86.0579 22.939C85.8059 23.017 85.5929 23.128 85.4189 23.272C85.2509 23.416 85.1249 23.59 85.0409 23.794C84.9569 23.992 84.9149 24.211 84.9149 24.451C84.9149 24.757 84.9989 25.012 85.1669 25.216C85.3409 25.42 85.5689 25.594 85.8509 25.738C86.1329 25.882 86.4539 26.011 86.8139 26.125C87.1739 26.239 87.5429 26.362 87.9209 26.494C88.2989 26.62 88.6679 26.77 89.0279 26.944C89.3879 27.112 89.7089 27.328 89.9909 27.592C90.2729 27.85 90.4979 28.168 90.6659 28.546C90.8399 28.924 90.9269 29.383 90.9269 29.923C90.9269 30.511 90.8249 31.063 90.6209 31.579C90.4229 32.089 90.1289 32.536 89.7389 32.92C89.3549 33.298 88.8839 33.598 88.3259 33.82C87.7679 34.036 87.1289 34.144 86.4089 34.144C85.9949 34.144 85.5869 34.102 85.1849 34.018C84.7829 33.94 84.3959 33.826 84.0239 33.676C83.6579 33.526 83.3129 33.346 82.9889 33.136C82.6649 32.926 82.3769 32.692 82.1249 32.434L82.8359 31.273C82.8959 31.189 82.9739 31.12 83.0699 31.066C83.1659 31.006 83.2679 30.976 83.3759 30.976C83.5259 30.976 83.6879 31.039 83.8619 31.165C84.0359 31.285 84.2429 31.42 84.4829 31.57C84.7229 31.72 85.0019 31.858 85.3199 31.984C85.6439 32.104 86.0309 32.164 86.4809 32.164C87.1709 32.164 87.7049 32.002 88.0829 31.678C88.4609 31.348 88.6499 30.877 88.6499 30.265C88.6499 29.923 88.5629 29.644 88.3889 29.428C88.2209 29.212 87.9959 29.032 87.7139 28.888C87.4319 28.738 87.1109 28.612 86.7509 28.51C86.3909 28.408 86.0249 28.297 85.6529 28.177C85.2809 28.057 84.9149 27.913 84.5549 27.745C84.1949 27.577 83.8739 27.358 83.5919 27.088C83.3099 26.818 83.0819 26.482 82.9079 26.08C82.7399 25.672 82.6559 25.171 82.6559 24.577C82.6559 24.103 82.7489 23.641 82.9349 23.191C83.1269 22.741 83.4029 22.342 83.7629 21.994C84.1229 21.646 84.5669 21.367 85.0949 21.157C85.6229 20.947 86.2289 20.842 86.9129 20.842C87.6809 20.842 88.3889 20.962 89.0369 21.202C89.6849 21.442 90.2369 21.778 90.6929 22.21L90.0899 23.353ZM95.3615 34.144C94.5575 34.144 93.9395 33.919 93.5075 33.469C93.0815 33.013 92.8685 32.386 92.8685 31.588V26.431H91.9235C91.8035 26.431 91.7015 26.392 91.6175 26.314C91.5335 26.236 91.4915 26.119 91.4915 25.963V25.081L92.9765 24.838L93.4445 22.318C93.4745 22.198 93.5315 22.105 93.6155 22.039C93.6995 21.973 93.8075 21.94 93.9395 21.94H95.0915V24.847H97.5575V26.431H95.0915V31.435C95.0915 31.723 95.1605 31.948 95.2985 32.11C95.4425 32.272 95.6375 32.353 95.8835 32.353C96.0215 32.353 96.1355 32.338 96.2255 32.308C96.3215 32.272 96.4025 32.236 96.4685 32.2C96.5405 32.164 96.6035 32.131 96.6575 32.101C96.7115 32.065 96.7655 32.047 96.8195 32.047C96.8855 32.047 96.9395 32.065 96.9815 32.101C97.0235 32.131 97.0685 32.179 97.1165 32.245L97.7825 33.325C97.4585 33.595 97.0865 33.799 96.6665 33.937C96.2465 34.075 95.8115 34.144 95.3615 34.144ZM106.937 24.766V34H105.578C105.284 34 105.098 33.865 105.02 33.595L104.867 32.857C104.489 33.241 104.072 33.553 103.616 33.793C103.16 34.027 102.623 34.144 102.005 34.144C101.501 34.144 101.054 34.06 100.664 33.892C100.28 33.718 99.9558 33.475 99.6918 33.163C99.4278 32.851 99.2268 32.482 99.0888 32.056C98.9568 31.624 98.8908 31.15 98.8908 30.634V24.766H101.114V30.634C101.114 31.198 101.243 31.636 101.501 31.948C101.765 32.254 102.158 32.407 102.68 32.407C103.064 32.407 103.424 32.323 103.76 32.155C104.096 31.981 104.414 31.744 104.714 31.444V24.766H106.937ZM114.937 27.124C114.685 26.818 114.409 26.602 114.109 26.476C113.815 26.35 113.497 26.287 113.155 26.287C112.819 26.287 112.516 26.35 112.246 26.476C111.976 26.602 111.745 26.794 111.553 27.052C111.361 27.304 111.214 27.628 111.112 28.024C111.01 28.414 110.959 28.876 110.959 29.41C110.959 29.95 111.001 30.409 111.085 30.787C111.175 31.159 111.301 31.465 111.463 31.705C111.625 31.939 111.823 32.11 112.057 32.218C112.291 32.32 112.552 32.371 112.84 32.371C113.302 32.371 113.695 32.275 114.019 32.083C114.343 31.891 114.649 31.618 114.937 31.264V27.124ZM117.16 20.626V34H115.801C115.507 34 115.321 33.865 115.243 33.595L115.054 32.704C114.682 33.13 114.253 33.475 113.767 33.739C113.287 34.003 112.726 34.135 112.084 34.135C111.58 34.135 111.118 34.03 110.698 33.82C110.278 33.61 109.915 33.307 109.609 32.911C109.309 32.509 109.075 32.014 108.907 31.426C108.745 30.838 108.664 30.166 108.664 29.41C108.664 28.726 108.757 28.09 108.943 27.502C109.129 26.914 109.396 26.404 109.744 25.972C110.092 25.54 110.509 25.204 110.995 24.964C111.481 24.718 112.027 24.595 112.633 24.595C113.149 24.595 113.59 24.676 113.956 24.838C114.322 25 114.649 25.219 114.937 25.495V20.626H117.16ZM121.658 24.766V34H119.426V24.766H121.658ZM121.964 22.075C121.964 22.267 121.925 22.447 121.847 22.615C121.769 22.783 121.664 22.93 121.532 23.056C121.406 23.182 121.256 23.284 121.082 23.362C120.908 23.434 120.722 23.47 120.524 23.47C120.332 23.47 120.149 23.434 119.975 23.362C119.807 23.284 119.66 23.182 119.534 23.056C119.408 22.93 119.306 22.783 119.228 22.615C119.156 22.447 119.12 22.267 119.12 22.075C119.12 21.877 119.156 21.691 119.228 21.517C119.306 21.343 119.408 21.193 119.534 21.067C119.66 20.941 119.807 20.842 119.975 20.77C120.149 20.692 120.332 20.653 120.524 20.653C120.722 20.653 120.908 20.692 121.082 20.77C121.256 20.842 121.406 20.941 121.532 21.067C121.664 21.193 121.769 21.343 121.847 21.517C121.925 21.691 121.964 21.877 121.964 22.075ZM128.01 24.622C128.694 24.622 129.315 24.733 129.873 24.955C130.437 25.177 130.917 25.492 131.313 25.9C131.715 26.308 132.024 26.806 132.24 27.394C132.456 27.982 132.564 28.639 132.564 29.365C132.564 30.097 132.456 30.757 132.24 31.345C132.024 31.933 131.715 32.434 131.313 32.848C130.917 33.262 130.437 33.58 129.873 33.802C129.315 34.024 128.694 34.135 128.01 34.135C127.32 34.135 126.693 34.024 126.129 33.802C125.565 33.58 125.082 33.262 124.68 32.848C124.284 32.434 123.975 31.933 123.753 31.345C123.537 30.757 123.429 30.097 123.429 29.365C123.429 28.639 123.537 27.982 123.753 27.394C123.975 26.806 124.284 26.308 124.68 25.9C125.082 25.492 125.565 25.177 126.129 24.955C126.693 24.733 127.32 24.622 128.01 24.622ZM128.01 32.425C128.778 32.425 129.345 32.167 129.711 31.651C130.083 31.135 130.269 30.379 130.269 29.383C130.269 28.387 130.083 27.628 129.711 27.106C129.345 26.584 128.778 26.323 128.01 26.323C127.23 26.323 126.651 26.587 126.273 27.115C125.901 27.637 125.715 28.393 125.715 29.383C125.715 30.373 125.901 31.129 126.273 31.651C126.651 32.167 127.23 32.425 128.01 32.425ZM147.925 30.931C148.057 30.931 148.174 30.982 148.276 31.084L149.23 32.119C148.702 32.773 148.051 33.274 147.277 33.622C146.509 33.97 145.585 34.144 144.505 34.144C143.539 34.144 142.669 33.979 141.895 33.649C141.127 33.319 140.47 32.86 139.924 32.272C139.378 31.684 138.958 30.982 138.664 30.166C138.376 29.35 138.232 28.459 138.232 27.493C138.232 26.515 138.388 25.621 138.7 24.811C139.012 23.995 139.45 23.293 140.014 22.705C140.584 22.117 141.262 21.661 142.048 21.337C142.834 21.007 143.704 20.842 144.658 20.842C145.606 20.842 146.446 20.998 147.178 21.31C147.916 21.622 148.543 22.03 149.059 22.534L148.249 23.659C148.201 23.731 148.138 23.794 148.06 23.848C147.988 23.902 147.886 23.929 147.754 23.929C147.664 23.929 147.571 23.905 147.475 23.857C147.379 23.803 147.274 23.74 147.16 23.668C147.046 23.59 146.914 23.506 146.764 23.416C146.614 23.326 146.44 23.245 146.242 23.173C146.044 23.095 145.813 23.032 145.549 22.984C145.291 22.93 144.991 22.903 144.649 22.903C144.067 22.903 143.533 23.008 143.047 23.218C142.567 23.422 142.153 23.722 141.805 24.118C141.457 24.508 141.187 24.988 140.995 25.558C140.803 26.122 140.707 26.767 140.707 27.493C140.707 28.225 140.809 28.876 141.013 29.446C141.223 30.016 141.505 30.496 141.859 30.886C142.213 31.276 142.63 31.576 143.11 31.786C143.59 31.99 144.106 32.092 144.658 32.092C144.988 32.092 145.285 32.074 145.549 32.038C145.819 32.002 146.065 31.945 146.287 31.867C146.515 31.789 146.728 31.69 146.926 31.57C147.13 31.444 147.331 31.291 147.529 31.111C147.589 31.057 147.652 31.015 147.718 30.985C147.784 30.949 147.853 30.931 147.925 30.931ZM154.43 24.622C155.114 24.622 155.735 24.733 156.293 24.955C156.857 25.177 157.337 25.492 157.733 25.9C158.135 26.308 158.444 26.806 158.66 27.394C158.876 27.982 158.984 28.639 158.984 29.365C158.984 30.097 158.876 30.757 158.66 31.345C158.444 31.933 158.135 32.434 157.733 32.848C157.337 33.262 156.857 33.58 156.293 33.802C155.735 34.024 155.114 34.135 154.43 34.135C153.74 34.135 153.113 34.024 152.549 33.802C151.985 33.58 151.502 33.262 151.1 32.848C150.704 32.434 150.395 31.933 150.173 31.345C149.957 30.757 149.849 30.097 149.849 29.365C149.849 28.639 149.957 27.982 150.173 27.394C150.395 26.806 150.704 26.308 151.1 25.9C151.502 25.492 151.985 25.177 152.549 24.955C153.113 24.733 153.74 24.622 154.43 24.622ZM154.43 32.425C155.198 32.425 155.765 32.167 156.131 31.651C156.503 31.135 156.689 30.379 156.689 29.383C156.689 28.387 156.503 27.628 156.131 27.106C155.765 26.584 155.198 26.323 154.43 26.323C153.65 26.323 153.071 26.587 152.693 27.115C152.321 27.637 152.135 28.393 152.135 29.383C152.135 30.373 152.321 31.129 152.693 31.651C153.071 32.167 153.65 32.425 154.43 32.425ZM166.476 27.124C166.224 26.818 165.948 26.602 165.648 26.476C165.354 26.35 165.036 26.287 164.694 26.287C164.358 26.287 164.055 26.35 163.785 26.476C163.515 26.602 163.284 26.794 163.092 27.052C162.9 27.304 162.753 27.628 162.651 28.024C162.549 28.414 162.498 28.876 162.498 29.41C162.498 29.95 162.54 30.409 162.624 30.787C162.714 31.159 162.84 31.465 163.002 31.705C163.164 31.939 163.362 32.11 163.596 32.218C163.83 32.32 164.091 32.371 164.379 32.371C164.841 32.371 165.234 32.275 165.558 32.083C165.882 31.891 166.188 31.618 166.476 31.264V27.124ZM168.699 20.626V34H167.34C167.046 34 166.86 33.865 166.782 33.595L166.593 32.704C166.221 33.13 165.792 33.475 165.306 33.739C164.826 34.003 164.265 34.135 163.623 34.135C163.119 34.135 162.657 34.03 162.237 33.82C161.817 33.61 161.454 33.307 161.148 32.911C160.848 32.509 160.614 32.014 160.446 31.426C160.284 30.838 160.203 30.166 160.203 29.41C160.203 28.726 160.296 28.09 160.482 27.502C160.668 26.914 160.935 26.404 161.283 25.972C161.631 25.54 162.048 25.204 162.534 24.964C163.02 24.718 163.566 24.595 164.172 24.595C164.688 24.595 165.129 24.676 165.495 24.838C165.861 25 166.188 25.219 166.476 25.495V20.626H168.699ZM176.842 28.321C176.842 28.033 176.8 27.763 176.716 27.511C176.638 27.253 176.518 27.028 176.356 26.836C176.194 26.644 175.987 26.494 175.735 26.386C175.489 26.272 175.201 26.215 174.871 26.215C174.229 26.215 173.722 26.398 173.35 26.764C172.984 27.13 172.75 27.649 172.648 28.321H176.842ZM172.603 29.662C172.639 30.136 172.723 30.547 172.855 30.895C172.987 31.237 173.161 31.522 173.377 31.75C173.593 31.972 173.848 32.14 174.142 32.254C174.442 32.362 174.772 32.416 175.132 32.416C175.492 32.416 175.801 32.374 176.059 32.29C176.323 32.206 176.551 32.113 176.743 32.011C176.941 31.909 177.112 31.816 177.256 31.732C177.406 31.648 177.55 31.606 177.688 31.606C177.874 31.606 178.012 31.675 178.102 31.813L178.741 32.623C178.495 32.911 178.219 33.154 177.913 33.352C177.607 33.544 177.286 33.7 176.95 33.82C176.62 33.934 176.281 34.015 175.933 34.063C175.591 34.111 175.258 34.135 174.934 34.135C174.292 34.135 173.695 34.03 173.143 33.82C172.591 33.604 172.111 33.289 171.703 32.875C171.295 32.455 170.974 31.939 170.74 31.327C170.506 30.709 170.389 29.995 170.389 29.185C170.389 28.555 170.491 27.964 170.695 27.412C170.899 26.854 171.19 26.371 171.568 25.963C171.952 25.549 172.417 25.222 172.963 24.982C173.515 24.742 174.136 24.622 174.826 24.622C175.408 24.622 175.945 24.715 176.437 24.901C176.929 25.087 177.352 25.36 177.706 25.72C178.06 26.074 178.336 26.512 178.534 27.034C178.738 27.55 178.84 28.141 178.84 28.807C178.84 29.143 178.804 29.371 178.732 29.491C178.66 29.605 178.522 29.662 178.318 29.662H172.603Z" fill="#F2F2F2"/>
<rect x="0.5" y="0.5" width="207" height="53" rx="5.5" stroke="#A09AD6"/>
</g>
<defs>
<clipPath id="clip0_385_110">
<rect width="208" height="54" fill="white"/>
</clipPath>
</defs>
</svg>
